<svg width="10" height="14" viewBox="0 0 10 14" fill="none" xmlns="http://www.w3.org/2000/svg">
<g id="placeholder-filled-point">
<path id="Shape" fill-rule="evenodd" clip-rule="evenodd" d="M0 5.15429C0 2.31222 2.24304 0 4.99979 0C7.75668 0 9.99972 2.31222 10 5.15429C10 5.89561 9.85295 6.60341 9.56273 7.25819C8.31223 10.0783 5.91547 13.0554 5.21078 13.9004C5.15796 13.9636 5.08096 14 4.99993 14C4.9189 14 4.8419 13.9636 4.78908 13.9004C4.08412 13.0552 1.68735 10.078 0.437266 7.25819C0.147192 6.60341 0 5.89561 0 5.15429ZM2.4026 5.15415C2.4026 6.63034 3.56777 7.83144 4.99979 7.83144C6.43196 7.83144 7.59712 6.63034 7.59698 5.15415C7.59698 3.67781 6.43182 2.47671 4.99979 2.47671C3.56777 2.47671 2.4026 3.67781 2.4026 5.15415Z" fill="#E1E1E1"/>
</g>
</svg>
