<svg width="14" height="14" viewBox="0 0 14 14" fill="none" xmlns="http://www.w3.org/2000/svg">
<path d="M4.63564 7.47774H3.36416C3.16314 7.47774 3 7.64068 3 7.8418V9.11334C3 9.31473 3.16314 9.47774 3.36416 9.47774H4.63564C4.83689 9.47774 5 9.31473 5 9.11334V7.8418C5 7.64068 4.83689 7.47774 4.63564 7.47774Z" fill="#E1E1E1"/>
<path d="M8 7.8418C8 7.64068 7.83684 7.47774 7.63597 7.47774H6.3642C6.16316 7.47774 6 7.64068 6 7.8418V9.11334C6 9.31473 6.16316 9.47774 6.3642 9.47774H7.63597C7.83684 9.47774 8 9.31473 8 9.11334V7.8418Z" fill="#E1E1E1"/>
<path d="M11 7.8418C11 7.64068 10.8369 7.47774 10.6358 7.47774H9.36436C9.16311 7.47774 9 7.64068 9 7.8418V9.11334C9 9.31473 9.16311 9.47774 9.36436 9.47774H10.6358C10.8369 9.47774 11 9.31473 11 9.11334V7.8418Z" fill="#E1E1E1"/>
<path d="M5 10.3643C5 10.1628 4.83689 10 4.63564 10H3.36416C3.16314 10 3 10.1628 3 10.3643V11.6357C3 11.837 3.16314 12 3.36416 12H4.63564C4.83689 12 5 11.837 5 11.6357V10.3643Z" fill="#E1E1E1"/>
<path d="M8 10.3643C8 10.1628 7.83684 10 7.63597 10H6.3642C6.16316 10 6 10.1628 6 10.3643V11.6357C6 11.837 6.16316 12 6.3642 12H7.63597C7.83684 12 8 11.837 8 11.6357V10.3643Z" fill="#E1E1E1"/>
<path d="M11 10.3643C11 10.1628 10.8369 10 10.636 10H9.36436C9.16311 10 9 10.1628 9 10.3643V11.6357C9 11.837 9.16311 12 9.36436 12H10.636C10.8369 12 11 11.837 11 11.6357V10.3643Z" fill="#E1E1E1"/>
<path fill-rule="evenodd" clip-rule="evenodd" d="M12.7539 3.63854V2.00586C13.4379 2.0253 14 2.5589 14 3.21476V12.783C14 13.4501 13.4244 14 12.7167 14H1.28333C0.574512 14 0 13.4512 0 12.783V3.21476C0 2.5589 0.562106 2.0253 1.24617 2.00586V3.63854C1.24617 4.37649 1.88118 4.97117 2.66385 4.97117H3.55838C4.34102 4.97117 4.98446 4.37649 4.98446 3.63854V2H9.01554V3.63854C9.01554 4.37649 9.65901 4.97117 10.4418 4.97117H11.3361C12.1188 4.97117 12.7539 4.37649 12.7539 3.63854ZM11.7837 12.7102C12.0901 12.7102 12.3385 12.476 12.3385 12.1872L12.3384 7.24483C12.3384 6.95596 12.0901 6.72169 11.7836 6.72169H2.19191C1.88544 6.72169 1.6371 6.95596 1.6371 7.24483V12.1872C1.6371 12.476 1.88547 12.7102 2.19191 12.7102H11.7837Z" fill="#E1E1E1"/>
<path d="M2.59005 4H3.54276C3.83194 4 4.06641 3.77184 4.06641 3.49003V0.510154C4.06641 0.228312 3.83194 0 3.54276 0H2.59005C2.30084 0 2.06641 0.228312 2.06641 0.510154V3.49003C2.06641 3.77184 2.30084 4 2.59005 4Z" fill="#E1E1E1"/>
<path d="M10.3752 4H11.3281C11.6171 4 11.8516 3.77184 11.8516 3.49003V0.510154C11.8516 0.228312 11.6171 0 11.3281 0H10.3752C10.0861 0 9.85156 0.228312 9.85156 0.510154V3.49003C9.85156 3.77184 10.0861 4 10.3752 4Z" fill="#E1E1E1"/>
</svg>
