<svg width="14" height="14" viewBox="0 0 14 14" fill="none" xmlns="http://www.w3.org/2000/svg">
<g id="Group 6">
<path id="Path" d="M8.43753 7.5833C8.12648 7.5833 7.87506 7.84467 7.87506 8.1666V10.5C7.87506 10.8214 7.62303 11.0833 7.31249 11.0833H5.62499V2.3333C5.62499 1.83513 5.31898 1.39005 4.85889 1.22438L4.69235 1.1666H7.31249C7.62303 1.1666 7.87506 1.4285 7.87506 1.75V3.5C7.87506 3.82193 8.12648 4.0833 8.43753 4.0833C8.74858 4.0833 9 3.82193 9 3.5V1.75C9 0.785172 8.24287 0 7.31249 0H1.26563C1.24421 0 1.22628 0.00993349 1.20548 0.0128174C1.17839 0.0104675 1.15254 0 1.12504 0C0.504583 0 0 0.523163 0 1.1666V11.6666C0 12.1648 0.306005 12.6098 0.766093 12.7755L4.1513 13.9457C4.26604 13.9825 4.38016 14 4.50005 14C5.12051 14 5.62499 13.4767 5.62499 12.8333V12.25H7.31249C8.24287 12.25 9 11.4648 9 10.5V8.1666C9 7.84467 8.74858 7.5833 8.43753 7.5833Z" fill="#E1E1E1"/>
<path id="Path_2" d="M13.8401 5.57583L11.6583 3.17596C11.5023 3.00436 11.2677 2.95272 11.0638 3.04566C10.8604 3.13871 10.7272 3.35766 10.7272 3.60012V5.40006H8.54551C8.24439 5.40006 8 5.66877 8 6C8 6.33122 8.24439 6.59994 8.54551 6.59994H10.7272V8.39987C10.7272 8.64233 10.8604 8.86128 11.0638 8.95433C11.2677 9.04727 11.5023 8.99564 11.6583 8.82415L13.8401 6.42416C14.0533 6.18962 14.0533 5.81038 13.8401 5.57583Z" fill="#E1E1E1"/>
</g>
</svg>
