<svg width="12" height="13" viewBox="0 0 12 13" fill="none" xmlns="http://www.w3.org/2000/svg">
<g id="exchange">
<g id="Group 5">
<path id="XMLID_2_" d="M12 6.68008C12 4.23724 10.3891 2.02659 7.89607 1.04823C7.57219 0.921145 7.19508 1.05386 7.05366 1.34465C6.91223 1.63541 7.06001 1.97411 7.38368 2.10116C9.41069 2.89662 10.7205 4.69392 10.7205 6.68008C10.7205 8.25354 9.89652 9.70945 8.54563 10.6418L8.98019 8.67989C9.04911 8.36868 8.82409 8.06617 8.47756 8.00427C8.13086 7.94241 7.79423 8.14446 7.72526 8.45566L7.01254 11.6732C6.97949 11.8227 7.01378 11.9778 7.10808 12.1046C7.20233 12.2313 7.34879 12.3191 7.51517 12.3489L11.098 12.9889C11.1401 12.9964 11.1821 13 11.2235 13C11.5225 13 11.7897 12.8108 11.8503 12.5374C11.9192 12.2262 11.6942 11.9238 11.3476 11.8618L9.38545 11.5114C11.0113 10.3632 12 8.59198 12 6.68008Z" fill="#E1E1E1"/>
<path id="XMLID_4_" d="M3.52272 4.99566C3.56486 5.00317 3.60687 5.00681 3.64824 5.00681C3.94721 5.00681 4.2144 4.81763 4.27496 4.54423L4.98759 1.32667C5.05651 1.01546 4.83149 0.712989 4.48497 0.651093L0.902325 0.0111036C0.555802 -0.0506394 0.219003 0.151328 0.150039 0.462494C0.0811184 0.773736 0.306134 1.07617 0.652658 1.1381L2.61635 1.48884C0.990608 2.63821 0 4.41224 0 6.31999C0 8.7629 1.6109 10.9735 4.1039 11.9518C4.18732 11.9845 4.2742 12 4.35971 12C4.60622 12 4.84122 11.8712 4.94626 11.6554C5.08768 11.3646 4.93995 11.0259 4.6162 10.8989C2.58926 10.1034 1.27951 8.30615 1.27951 6.31999C1.27951 4.75041 2.10439 3.2921 3.45453 2.35883L3.0201 4.32009C2.95118 4.63129 3.1762 4.93373 3.52272 4.99566Z" fill="#E1E1E1"/>
</g>
</g>
</svg>
