<svg width="14" height="13" viewBox="0 0 14 13" fill="none" xmlns="http://www.w3.org/2000/svg">
<g id="icon">
<path id="Shape" fill-rule="evenodd" clip-rule="evenodd" d="M11.7225 4.21299L12.076 5.00946C12.076 5.00946 14.0006 5.65771 14 5.75673V7.18361C14 7.27956 12.0786 7.98254 12.0786 7.98254L11.7258 8.77778C11.7258 8.77778 12.5928 10.5005 12.5169 10.5712L11.4288 11.5805C11.3555 11.6475 9.46454 10.8837 9.46454 10.8837L8.60725 11.2127C8.60725 11.2127 7.9069 13 7.80055 13H6.2643C6.1599 13 5.40377 11.2176 5.40377 11.2176L4.54713 10.8886C4.54713 10.8886 2.69054 11.6918 2.61661 11.6236L1.52846 10.613C1.45648 10.5454 2.27875 8.78701 2.27875 8.78701L1.92533 7.993C1.92533 7.993 0 7.34291 0 7.24327V5.81516C0 5.72044 1.92079 5.01869 1.92079 5.01869L2.27421 4.22345C2.27421 4.22345 1.40914 2.4995 1.48437 2.43L2.57122 1.42073C2.64385 1.35246 4.5387 2.11634 4.5387 2.11634L5.39339 1.78729C5.39339 1.78729 6.0931 0 6.2001 0H7.73635C7.8401 0 8.59623 1.7836 8.59623 1.7836L9.45222 2.11142C9.45222 2.11142 11.3082 1.30818 11.3834 1.37768L12.4722 2.38572C12.5448 2.45338 11.7225 4.21299 11.7225 4.21299ZM7.00032 8.58282C8.23762 8.58282 9.24471 7.64796 9.24471 6.49969C9.24471 5.35142 8.23827 4.41841 7.00032 4.4178C5.76432 4.4178 4.75594 5.35142 4.75594 6.49969C4.75594 7.64796 5.76432 8.58282 7.00032 8.58282Z" fill="#E1E1E1"/>
</g>
</svg>
