<?xml version="1.0" encoding="UTF-8"?>
<svg width="13px" height="11px" viewBox="0 0 13 11" version="1.1" xmlns="http://www.w3.org/2000/svg" xmlns:xlink="http://www.w3.org/1999/xlink">
    <!-- Generator: sketchtool 53.2 (72643) - https://sketchapp.com -->
    <title>A307AF8E-7295-4FBF-9D12-9CCE67EB1890</title>
    <desc>Created with sketchtool.</desc>
    <g id="Page-1" stroke="none" stroke-width="1" fill="none" fill-rule="evenodd">
        <g id="головга" transform="translate(-574.000000, -3088.000000)" fill="#40B425" fill-rule="nonzero">
            <g id="Останні-новини" transform="translate(315.000000, 2648.000000)">
                <g id="1" transform="translate(0.000000, 54.000000)">
                    <g id="texst" transform="translate(105.000000, 295.000000)">
                        <g id="read-more" transform="translate(154.000000, 89.000000)">
                            <g id="book-opened-filled-reading-tool" transform="translate(0.000000, 2.000000)">
                                <path d="M13,0.784913581 C13,0.333532527 12.6173309,-0.023647263 12.1620867,0.0012244872 C9.45437331,0.150363404 7.99495273,1.01649169 7.24149056,1.73346797 C7.08710339,1.88131162 7,2.08541436 7,2.29738028 L7,10.6067167 C7,10.9311877 7.37475176,11.1156521 7.63602235,10.9193995 C8.47789426,10.2822457 9.90168704,9.63067388 12.2491769,9.51553901 C12.6700997,9.49460539 12.9999868,9.14920076 12.9999868,8.73184991 L12.9999868,0.784913581 L13,0.784913581 Z" id="Path"></path>
                                <path d="M0.74967004,9.51486346 C3.09766828,9.62998863 4.52177739,10.2801842 5.36384954,10.9186056 C5.62384514,11.116163 6,10.931688 6,10.6059492 L6,2.29731335 C6,2.08405706 5.91289045,1.87998461 5.75846898,1.73344859 C5.00483942,1.01653276 3.54509459,0.150477506 0.838099428,0.00135116387 C0.38275407,-0.0248136474 0,0.332336027 0,0.784974179 L0,8.73253561 C0,9.1485561 0.329960405,9.49523985 0.74967004,9.51486346 Z" id="Path"></path>
                            </g>
                        </g>
                    </g>
                </g>
            </g>
        </g>
    </g>
</svg>