<?xml version="1.0" encoding="UTF-8"?>
<svg width="13px" height="7px" class="eye-pic" fill="#424242" viewBox="0 0 13 7" version="1.1" xmlns="http://www.w3.org/2000/svg" xmlns:xlink="http://www.w3.org/1999/xlink">
    <!-- Generator: sketchtool 53.2 (72643) - https://sketchapp.com -->
    <title>F867C43C-324A-4A79-BC7C-AF9FD6382DED</title>
    <desc>Created with sketchtool.</desc>
    <g id="Page-1" stroke="none" stroke-width="1" fill-rule="evenodd">
        <!-- <g id="головга" transform="translate(-847.000000, -1366.000000)" fill="red" fill-rule="nonzero">
            <g id="новинки" transform="translate(315.000000, 833.000000)">
                <g id="2" transform="translate(330.000000, 54.000000)">
                    <g id="текст" transform="translate(74.500000, 325.000000)">
                        <g id="кнопки" transform="translate(0.500000, 139.000000)">
                            <g id="кнопка_глаз" transform="translate(115.000000, 0.000000)">
                                <g id="eye" transform="translate(12.000000, 15.000000)"> -->
                                    <path d="M12.7766525,3.21919686 C12.7504132,3.18614288 12.1205267,2.40040347 11.0406441,1.6114945 C9.59762257,0.557248143 8.02747403,0 6.49995731,0 C4.97249751,0 3.40234897,0.557248143 1.95927057,1.6114945 C0.879416368,2.40037517 0.249529877,3.18614288 0.223262076,3.21919686 L0,3.49998585 L0.223290535,3.78080314 C0.249558336,3.81385712 0.879444828,4.59962483 1.95929903,5.3885338 C3.40237743,6.44275186 4.97252597,7 6.49998577,7 C8.02747403,7 9.59762257,6.44275186 11.0406441,5.3885338 C12.1205267,4.59962483 12.7504132,3.81385712 12.7766525,3.78080314 L13,3.49998585 L12.7766525,3.21919686 Z M6.49995731,5.95192296 C5.14034961,5.95192296 4.03419915,4.85200099 4.03419915,3.49998585 C4.03419915,3.28816307 4.06134918,3.08253791 4.11237645,2.88633653 L3.54942589,2.79212704 C3.49427205,3.01923162 3.46501604,3.25626938 3.46501604,3.49998585 C3.46501604,4.37331263 3.84016463,5.16106132 4.438433,5.71264953 C3.66829978,5.42976637 3.01342615,5.03280736 2.519176,4.67379818 C1.90684881,4.22906939 1.44794492,3.77927496 1.1863199,3.49998585 C1.44805876,3.22061184 1.90690572,2.77087401 2.519176,2.32617353 C3.01342615,1.96716434 3.66832824,1.57020533 4.438433,1.28729387 L4.81608599,1.71059983 C5.25714598,1.29991551 5.84949485,1.04804874 6.49995731,1.04804874 C7.85956501,1.04804874 8.96568701,2.14797071 8.96568701,3.49998585 C8.96568701,4.85200099 7.85956501,5.95192296 6.49995731,5.95192296 Z M10.4807386,4.67379818 C9.98643155,5.03280736 9.33158638,5.42976637 8.56148163,5.71264953 C9.15972154,5.16108962 9.53487013,4.37334093 9.53487013,3.49995755 C9.53487013,2.62657417 9.15972154,1.83885378 8.56148163,1.28726557 C9.33161484,1.57017703 9.98643155,1.96713604 10.4807386,2.32614523 C11.0930658,2.77087401 11.5519697,3.22066844 11.8135947,3.49992925 C11.5518559,3.77935986 11.0930089,4.22912599 10.4807386,4.67379818 Z" id="Shape"></path>
                                    <path d="M5.06523945,3.0616998 C5.02292619,3.20037473 5,3.347481 5,3.5 C5,4.32840637 5.67157343,5 6.50001301,5 C7.32842657,5 8,4.32843239 8,3.5 C8,2.67156761 7.32842657,2 6.50001301,2 C6.09650165,2 5.73048932,2.15962319 5.46086587,2.4188092 L6.20074946,3.25278443 L5.06523945,3.0616998 Z" id="Path"></path>
                                <!-- </g>
                            </g>
                        </g>
                    </g>
                </g>
            </g>
        </g> -->
    </g>
</svg>