<?xml version="1.0" encoding="UTF-8"?>
<svg width="13px" height="12px" viewBox="0 0 13 12" version="1.1" xmlns="http://www.w3.org/2000/svg" xmlns:xlink="http://www.w3.org/1999/xlink">
    <!-- Generator: sketchtool 53.2 (72643) - https://sketchapp.com -->
    <title>2EDF6780-C4E0-4903-9A98-96D411DC5D19</title>
    <desc>Created with sketchtool.</desc>
    <g id="Page-1" stroke="none" stroke-width="1" fill="none" fill-rule="evenodd">
        <g id="головна" transform="translate(-342.000000, -1108.000000)" fill="#FFD700" fill-rule="nonzero">
            <g id="новинки-copy" transform="translate(314.000000, 800.000000)">
                <g id="1-товар" transform="translate(0.000000, 54.000000)">
                    <g id="Group" transform="translate(28.000000, 254.000000)">
                        <g id="star">
                            <path d="M6.80737644,0.197655882 L8.46096069,3.98606028 L12.6943499,4.33809445 C12.9879646,4.36263995 13.1074123,4.71725786 12.8845321,4.90393286 L9.67345569,7.59683276 L10.6357109,11.602917 C10.7024415,11.8813147 10.3908096,12.1002864 10.138568,11.9523674 L6.50041568,9.82853561 L2.8622634,11.9523674 C2.60935443,12.0996404 2.29838983,11.8806687 2.36512043,11.602917 L3.32737568,7.59683276 L0.115631923,4.90328692 C-0.107248279,4.71661192 0.0115321882,4.36199402 0.305814132,4.33744852 L4.53920336,3.98541435 L6.19278762,0.197655882 C6.30756425,-0.0658852939 6.69259981,-0.0658852939 6.80737644,0.197655882 Z" id="Path"></path>
                        </g>
                    </g>
                </g>
            </g>
        </g>
    </g>
</svg>