<!-- <?xml version="1.0" encoding="UTF-8"?> -->
<svg width="6px" height="12px" viewBox="0 0 6 12" fill="#424242" version="1.1" xmlns="http://www.w3.org/2000/svg" xmlns:xlink="http://www.w3.org/1999/xlink">
    <path d="M5.77405761,0.00249680097 L4.33493044,0 C2.71812042,0 1.67326676,1.15913985 1.67326676,2.95321619 L1.67326676,4.3148466 L0.226288749,4.3148466 C0.10125267,4.3148466 0,4.42445617 0,4.55965794 L0,6.53250523 C0,6.667707 0.101368123,6.77719172 0.226288749,6.77719172 L1.67326676,6.77719172 L1.67326676,11.7553135 C1.67326676,11.8905153 1.77451943,12 1.8995555,12 L3.78745021,12 C3.91248629,12 4.01373896,11.8903904 4.01373896,11.7553135 L4.01373896,6.77719172 L5.70559372,6.77719172 C5.8306298,6.77719172 5.93188247,6.667707 5.93188247,6.53250523 L5.93257519,4.55965794 C5.93257519,4.49474111 5.90867633,4.43257077 5.86630491,4.38662963 C5.8239335,4.34068849 5.76620678,4.3148466 5.70617099,4.3148466 L4.01373896,4.3148466 L4.01373896,3.16057551 C4.01373896,2.60578634 4.13600416,2.32414719 4.80436414,2.32414719 L5.7738267,2.32377267 C5.89874733,2.32377267 6,2.2141631 6,2.07908617 L6,0.247183296 C6,0.112231204 5.89886278,0.00274648107 5.77405761,0.00249680097 Z" id="Path"></path>
</svg>