<!-- <?xml version="1.0" encoding="UTF-8"?> -->
<svg width="12px" height="12px" viewBox="0 0 12 12" fill="#424242" version="1.1" xmlns="http://www.w3.org/2000/svg" xmlns:xlink="http://www.w3.org/1999/xlink">
    <path d="M8.68836285,0 L3.31149519,0 C1.48553785,0 0,1.48560883 0,3.31156617 L0,8.68843383 C0,10.5144621 1.48553785,12 3.31149519,12 L8.68836285,12 C10.5144621,12 12,10.5143912 12,8.68843383 L12,3.31156617 C12.000071,1.48560883 10.5144621,0 8.68836285,0 Z M10.9353728,8.68843383 C10.9353728,9.92738759 9.92738759,10.9353018 8.68843383,10.9353018 L3.31149519,10.9353018 C2.07261241,10.9353728 1.06469816,9.92738759 1.06469816,8.68843383 L1.06469816,3.31156617 C1.06469816,2.07268339 2.07261241,1.06469816 3.31149519,1.06469816 L8.68836285,1.06469816 C9.92731661,1.06469816 10.9353018,2.07268339 10.9353018,3.31156617 L10.9353018,8.68843383 L10.9353728,8.68843383 Z" id="Shape"></path>
    <path d="M6,3 C4.34577508,3 3,4.34580598 3,6.00006887 C3,7.65426289 4.34577508,9 6,9 C7.65422492,9 9,7.65426289 9,6.00006887 C9,4.34580598 7.65422492,3 6,3 Z M6,7.96692071 C4.91543282,7.96692071 4.03298671,7.08459208 4.03298671,6 C4.03298671,4.91533906 4.91536396,4.03294155 6,4.03294155 C7.08463604,4.03294155 7.96701329,4.91533906 7.96701329,6 C7.96701329,7.08459208 7.08456718,7.96692071 6,7.96692071 Z" id="Shape"></path>
    <path d="M9,2 C8.73727273,2 8.47918182,2.10636364 8.29363636,2.29272727 C8.10718182,2.47818182 8,2.73636364 8,3 C8,3.26281818 8.10727273,3.52090909 8.29363636,3.70727273 C8.47909091,3.89272727 8.73727273,4 9,4 C9.26363636,4 9.52090909,3.89272727 9.70727273,3.70727273 C9.89363636,3.52090909 10,3.26272727 10,3 C10,2.73636364 9.89363636,2.47818182 9.70727273,2.29272727 C9.52181818,2.10636364 9.26363636,2 9,2 Z" id="Path"></path>
</svg>