<svg xmlns="http://www.w3.org/2000/svg" width="26" height="30" viewBox="0 0 26 30">
    <g fill="#73BA3F" fill-rule="nonzero">
        <path d="M13.397 16h.2c1.826-.03 3.304-.664 4.395-1.875 2.4-2.67 2-7.244 1.957-7.68-.156-3.278-1.727-4.846-3.023-5.578C15.959.32 14.83.025 13.572 0H13.466c-.692 0-2.051.11-3.354.842-1.31.732-2.905 2.3-3.061 5.602-.044.437-.443 5.012 1.957 7.68 1.085 1.212 2.563 1.845 4.39 1.876zM8.715 6.598c0-.018.007-.037.007-.05.205-4.408 3.378-4.882 4.737-4.882H13.534c1.683.037 4.545.714 4.738 4.883 0 .018 0 .037.006.049.007.043.443 4.224-1.54 6.426-.785.873-1.832 1.303-3.21 1.316h-.062c-1.372-.013-2.425-.443-3.205-1.316-1.976-2.19-1.552-6.39-1.546-6.426z"/>
        <path d="M25.998 23.784v-.019c0-.05-.006-.1-.006-.156-.038-1.24-.12-4.138-2.868-5.064l-.063-.019c-2.855-.72-5.228-2.347-5.254-2.366a.86.86 0 0 0-1.19.207.838.838 0 0 0 .21 1.176c.107.075 2.626 1.81 5.778 2.61 1.475.52 1.64 2.079 1.684 3.506 0 .056 0 .106.007.156.006.564-.032 1.434-.133 1.935-1.026.576-5.045 2.566-11.16 2.566-6.09 0-10.134-1.997-11.166-2.573-.1-.5-.145-1.37-.133-1.934 0-.05.007-.1.007-.156.044-1.427.209-2.986 1.683-3.506 3.153-.8 5.672-2.541 5.78-2.61a.838.838 0 0 0 .208-1.177.86.86 0 0 0-1.19-.206c-.025.019-2.386 1.646-5.253 2.366a.804.804 0 0 0-.064.019C.128 19.47.046 22.369.008 23.603c0 .056 0 .106-.006.156v.019c-.007.325-.013 1.997.323 2.836.063.162.177.3.329.394.19.125 4.74 2.992 12.355 2.992s12.166-2.873 12.356-2.992a.84.84 0 0 0 .33-.394c.316-.833.31-2.504.303-2.83z"/>
    </g>
</svg>
