<?xml version="1.0" encoding="UTF-8"?>
<svg fill="#424242" width="36px" height="30px" viewBox="0 0 36 30" version="1.1" xmlns="http://www.w3.org/2000/svg" xmlns:xlink="http://www.w3.org/1999/xlink">
    <path d="M14.0003263,24 C12.3433637,24 11,25.3428009 11,26.9993111 C11,28.6571266 12.3433637,30 14.0003263,30 C15.6566363,30 17,28.6571266 17,26.9993111 C17,25.3429459 15.6566363,24 14.0003263,24 Z" id="Path"></path>
    <path d="M27.0003263,24 C25.3433637,24 24,25.3428009 24,26.9993111 C24,28.6571266 25.3433637,30 27.0003263,30 C28.6566363,30 30,28.6571266 30,26.9993111 C30,25.3429459 28.6566363,24 27.0003263,24 Z" id="Path-Copy-170"></path>
    <path d="M34.1220711,7.44464787 L17.4670375,7.44334977 C16.6342567,7.44334977 15.9591666,7.6074436 15.9591666,8.34673445 C15.9591666,9.0860253 16.6342567,9.20121054 17.4670375,9.20121054 L34.4228383,9.20121054 L32.9511023,13.2552015 L16.5362117,13.2552015 C15.7636731,13.2552015 14.9389264,13.2552015 14.9389264,14.1479616 C14.9389264,15.0407216 15.7636731,15 16.5362117,15 L32.2848261,15 L30.4396687,20.0745128 L11.3467866,20.0745128 L10,10.5 L9.07542045,3 C8.98836361,2.35279637 8.64623579,1.87447996 7.77456193,1.66984341 L1.84993446,0.190462955 C0.945793265,-0.0265241384 0.2915695,-0.135106808 0.0609197535,0.714941498 C-0.169729993,1.5649898 0.368144796,1.91120369 1.27228599,2.12798582 L7.27957099,3.56880472 L9.6189146,20.0745128 C9.6189146,20.0745128 9.69848658,22 11.5584363,22 L30.2204279,22 C31.7841081,22 32.086409,20.4670162 32.086409,20.4670162 L35.7849438,10.1397014 C35.7849438,10.1383349 36.8815838,7.44464787 34.1220711,7.44464787 Z" id="Path"></path>
</svg>