<svg width="19" height="14" viewBox="0 0 19 14" fill="none" xmlns="http://www.w3.org/2000/svg">
<g id="eye-with-a-diagonal-line-interface-symbol-for-invisibility">
<path id="Path" d="M13.1769 8.36165C13.7255 7.60126 14 6.75958 14 5.83672C14 5.57779 13.9723 5.29887 13.9166 5L11 10C11.9026 9.66812 12.6283 9.12169 13.1769 8.36165Z" fill="#7AC143"/>
<path id="Shape" fill-rule="evenodd" clip-rule="evenodd" d="M13.9895 1.10444C13.9967 1.09065 14 1.05939 14 1.01075C14 0.892654 13.9429 0.799072 13.8285 0.729278C13.8072 0.715414 13.7376 0.675465 13.6196 0.609356C13.5019 0.543502 13.3892 0.479217 13.2824 0.416647C13.1753 0.35415 13.0577 0.289975 12.9289 0.224012C12.8003 0.158012 12.6897 0.104198 12.597 0.0624971C12.504 0.0208688 12.4398 0 12.4041 0C12.2755 0 12.1755 0.0556381 12.1042 0.166695L11.5259 1.17716C10.8762 1.05917 10.2334 1.00006 9.5978 1.00006C7.67683 1.00006 5.90586 1.47238 4.28473 2.41677C2.66372 3.36131 1.30698 4.64937 0.214267 6.28127C0.0713972 6.4967 0 6.73629 0 7.00018C0 7.264 0.0713972 7.5037 0.214267 7.71884C0.842622 8.67009 1.58713 9.52101 2.44765 10.2709C3.30817 11.021 4.24894 11.6214 5.27011 12.073C4.95589 12.5938 4.79881 12.896 4.79881 12.9794C4.79881 13.1043 4.85598 13.2015 4.97026 13.2709C5.8414 13.7572 6.31979 14 6.40556 14C6.53395 14 6.63401 13.9442 6.70541 13.8331L7.23029 12.9062C7.98729 11.594 9.1155 9.62513 10.6153 7.00022C12.1149 4.37523 13.2397 2.40999 13.9895 1.10444ZM5.94499 10.9064C4.08836 10.0939 2.56362 8.79195 1.37118 7.00029C2.45662 5.36139 3.81699 4.13564 5.4523 3.32333C5.01671 4.04542 4.79884 4.82669 4.79884 5.66695C4.79884 6.40994 4.97372 7.11463 5.32372 7.78138C5.67366 8.44809 6.15925 8.99994 6.78056 9.43746L5.94499 10.9064ZM9.59765 3.50016C9.74044 3.50016 9.86215 3.45157 9.96203 3.35426C10.0617 3.25725 10.1117 3.13919 10.1117 3.00026C10.1117 2.8614 10.0616 2.7433 9.96176 2.64611C9.86159 2.54895 9.74014 2.50021 9.59735 2.50021C8.70464 2.50021 7.93878 2.81102 7.2997 3.43249C6.66065 4.05403 6.34099 4.79888 6.34099 5.66684C6.34099 5.80573 6.39097 5.92383 6.49103 6.0211C6.59101 6.11833 6.71242 6.167 6.85533 6.167C6.99809 6.167 7.11942 6.1184 7.21952 6.0211C7.31943 5.92383 7.36955 5.80588 7.36955 5.66684C7.36955 5.06967 7.58727 4.55933 8.02297 4.13557C8.45856 3.71206 8.98355 3.50016 9.59765 3.50016Z" fill="#7AC143"/>
<path id="Path_2" d="M18.7767 6.43172C18.3524 5.78685 17.8149 5.16217 17.164 4.55796C16.5133 3.95379 15.834 3.43457 15.1271 3L14.424 4.14054C15.6665 4.92123 16.7157 5.91928 17.5712 7.13444C16.6712 8.41069 15.5493 9.45283 14.2067 10.2606C12.8636 11.0689 11.4034 11.5337 9.82595 11.6558L9 13C10.6519 13 12.2125 12.6776 13.6819 12.0327C15.1513 11.3879 16.4444 10.4816 17.5603 9.3139C18.0811 8.76387 18.4866 8.27173 18.7769 7.83723C18.9256 7.60625 19 7.37191 19 7.13451C18.9999 6.89693 18.9255 6.6627 18.7767 6.43172Z" fill="#7AC143"/>
</g>
</svg>
