<svg width="25" height="25" viewBox="0 0 25 25" fill="none" xmlns="http://www.w3.org/2000/svg">
<g id="google-plus">
<path id="Shape" fill-rule="evenodd" clip-rule="evenodd" d="M4 0C1.79086 0 0 1.79086 0 4V21C0 23.2091 1.79086 25 4 25H21C23.2091 25 25 23.2091 25 21V4C25 1.79086 23.2091 0 21 0H4ZM14.5739 13.5517C14.1464 16.3601 12.0526 17.9701 9.34183 17.9701C6.29556 17.9701 3.82584 15.5004 3.82584 12.4541C3.82584 9.40859 6.29556 6.93887 9.34183 6.93887C10.8154 6.93887 12.1066 7.46473 13.0464 8.37755L11.4634 9.96056C10.9272 9.42043 10.1936 9.13255 9.34183 9.13255C7.54866 9.13255 6.09489 10.6616 6.09489 12.454C6.09489 14.248 7.54866 15.7327 9.34183 15.7327C10.8447 15.7327 11.9829 15.0063 12.3112 13.5517H9.34183V11.3366H14.5604C14.6231 11.6935 14.6548 12.067 14.6548 12.454C14.6547 12.8379 14.627 13.2035 14.5739 13.5517ZM19.265 14.7969V12.8649H21.1978V11.4912H19.265V9.55846H17.8922V11.4912H15.9594V12.8649H17.8922V14.7969H19.265Z" fill="#DD4B39"/>
</g>
</svg>
