<svg width="14" height="14" viewBox="0 0 14 14" fill="none" xmlns="http://www.w3.org/2000/svg">
<g id="badge" opacity="0.5">
<path id="Shape" d="M13.8215 7.77801L13.6045 7.48884C13.3703 7.17133 13.3645 6.74326 13.5959 6.42574L13.807 6.13375C14.1309 5.68583 13.9805 5.06214 13.486 4.80416L13.162 4.63407C12.8092 4.4498 12.6183 4.06425 12.6848 3.6787L12.7455 3.32433C12.8381 2.78286 12.4274 2.28391 11.8663 2.26123L11.5019 2.24706C11.1027 2.23005 10.7586 1.9664 10.6487 1.58936L10.5474 1.24349C10.3912 0.716197 9.80123 0.444044 9.2864 0.659498L8.9509 0.801245C8.58358 0.957166 8.15842 0.863613 7.88944 0.571615L7.64649 0.305132C7.2705 -0.105933 6.61685 -0.100263 6.24953 0.313637L6.00947 0.582955C5.74628 0.877788 5.32111 0.97701 4.9538 0.826759L4.6154 0.690682C4.09769 0.480898 3.51056 0.764391 3.36305 1.29452L3.26761 1.64038C3.16349 2.01743 2.8222 2.28675 2.42307 2.30943L2.05864 2.32927C1.50044 2.36046 1.09552 2.86507 1.19675 3.40371L1.26327 3.75524C1.33558 4.14079 1.14758 4.52634 0.80051 4.71628L0.47947 4.88921C-0.00932258 5.1557 -0.151043 5.78222 0.178674 6.22446L0.395594 6.51363C0.629867 6.83114 0.635652 7.25921 0.404271 7.57673L0.193136 7.86872C-0.130798 8.31664 0.0196001 8.94033 0.514177 9.19831L0.83811 9.3684C1.19097 9.55267 1.38185 9.93822 1.31533 10.3238L1.2546 10.6781C1.16204 11.2196 1.57274 11.7186 2.13384 11.7412L2.49827 11.7554C2.8974 11.7724 3.24158 12.0361 3.35148 12.4131L3.45271 12.759C3.6089 13.2863 4.19892 13.5584 4.71374 13.343L5.04924 13.2012C5.41656 13.0453 5.84172 13.1389 6.1107 13.4309L6.35365 13.6973C6.72675 14.1056 7.3804 14.0999 7.74772 13.686L7.98778 13.4167C8.25097 13.1218 8.67614 13.0226 9.04345 13.1729L9.38185 13.309C9.89956 13.5187 10.4867 13.2352 10.6342 12.7051L10.7296 12.3593C10.8338 11.9822 11.1751 11.7129 11.5742 11.6902L11.9386 11.6704C12.4968 11.6392 12.9017 11.1346 12.8005 10.5959L12.734 10.2444C12.6617 9.85884 12.8497 9.47329 13.1967 9.28335L13.5178 9.11042C14.0095 8.84678 14.1512 8.22025 13.8215 7.77801Z" fill="#043E44"/>
<g id="Group 7">
<path id="Path" d="M7.76528 6.73219H8.75694C9.06377 6.73219 9.3125 6.50833 9.3125 6.23219C9.3125 5.95605 9.06377 5.73219 8.75694 5.73219H8.47917C8.63144 5.32186 8.60361 4.87466 8.40139 4.48219C8.07014 3.8679 7.37674 3.47907 6.61806 3.4822H6.24028C5.64578 3.50177 5.08931 3.75037 4.7125 4.16469C4.5187 4.37877 4.55443 4.69372 4.79229 4.86815C5.0287 5.0415 5.37618 5.01094 5.57083 4.79969C5.75481 4.59883 6.02882 4.48241 6.31806 4.48219H6.59583C6.92941 4.47183 7.23977 4.63533 7.39306 4.90219C7.52089 5.17371 7.46828 5.48685 7.25694 5.71219L7.2375 5.73219H5.42361C5.11679 5.73219 4.86806 5.95605 4.86806 6.23219C4.86806 6.50833 5.11679 6.73219 5.42361 6.73219H6.32083L5.85694 7.23219H4.86806C4.56123 7.23219 4.3125 7.45604 4.3125 7.73218C4.3125 8.00832 4.56123 8.23218 4.86806 8.23218H5.13194C4.99385 8.62414 5.01852 9.04787 5.20139 9.42468C5.52535 10.0584 6.2237 10.4693 6.99861 10.4822H7.36806C7.96245 10.473 8.52224 10.2288 8.89861 9.81468C9.07373 9.58793 9.01146 9.27635 8.75951 9.11874C8.54545 8.98482 8.2567 9.0029 8.06528 9.16218C7.88575 9.36979 7.6075 9.48851 7.31528 9.48218H7.0375C6.69194 9.48224 6.37726 9.30316 6.22917 9.02218C6.10432 8.76274 6.15972 8.46156 6.37083 8.25218L7.76528 6.73219Z" fill="white"/>
<path id="Path_2" d="M8.20095 7.20288H7.6454C7.33858 7.20288 7.08984 7.42876 7.08984 7.70739C7.08984 7.98601 7.33858 8.21189 7.6454 8.21189H8.20095C8.50778 8.21189 8.75651 7.98601 8.75651 7.70739C8.75651 7.42876 8.50778 7.20288 8.20095 7.20288Z" fill="white"/>
</g>
</g>
</svg>
