<?xml version="1.0" encoding="UTF-8"?>
<svg width="24px" height="24px" viewBox="0 0 24 24" version="1.1" xmlns="http://www.w3.org/2000/svg" xmlns:xlink="http://www.w3.org/1999/xlink">
    <!-- Generator: sketchtool 53.2 (72643) - https://sketchapp.com -->
    <title>B61963E6-0A43-4B89-943F-B764DC48B202</title>
    <desc>Created with sketchtool.</desc>
    <g id="Page-1" stroke="none" stroke-width="1" fill="none" fill-rule="evenodd">
        <g id="+_mob_про-нас" transform="translate(-40.000000, -89.000000)" fill="#043E44" fill-rule="nonzero">
            <g id="пошук" transform="translate(15.000000, 76.000000)">
                <path d="M48.7924152,35.7760532 L42.9587492,29.9436807 C44.5236194,28.1450111 45.4710579,25.7982262 45.4710579,23.2332594 C45.4710579,17.5871397 40.8775782,13 35.2355289,13 C29.588157,13 25,17.5924612 25,23.2332594 C25,28.8740576 29.5934797,33.4665188 35.2355289,33.4665188 C37.8010645,33.4665188 40.1483699,32.5192905 41.9474385,30.9547672 L47.7811045,36.7871397 C47.9194943,36.9254989 48.1057884,37 48.2867598,37 C48.4677312,37 48.6540253,36.9308204 48.7924152,36.7871397 C49.0691949,36.5104213 49.0691949,36.0527716 48.7924152,35.7760532 Z M25.9972891,23.2332594 C25.9972891,18.2692437 30.2545638,13.8785095 35.2146364,13.8785095 C40.1801536,13.8785095 44.4319836,18.2746867 44.4319836,23.2332594 C44.4319836,28.1918321 40.2010462,32.5083817 35.2355289,32.5083817 C30.2754563,32.5083817 25.9972891,28.1972751 25.9972891,23.2332594 Z" id="Shape"></path>
            </g>
        </g>
    </g>
</svg>