<svg >
        <path d="M23.757 3.493L16.507.04a.424.424 0 0 0-.57.557l.742 1.665h-.009c-.347.004-.743.075-1.17.14-.427.078-.887.117-1.367.241-.476.126-.977.262-1.497.401-.505.192-1.023.388-1.541.596-.5.263-1.018.493-1.498.792-.473.315-.96.59-1.38.954l-.637.511-.573.549c-.19.173-.366.36-.526.55L6 7.543c-.28.38-.563.718-.776 1.068-.23.336-.413.661-.571.947-.157.288-.282.546-.38.759A7.025 7.025 0 0 0 4 11s.129-.235.4-.61a11.58 11.58 0 0 1 1.237-1.446c.264-.286.597-.552.924-.849l.544-.414c.181-.144.371-.28.58-.403l.613-.388.66-.34c.43-.246.917-.397 1.374-.589.466-.171.957-.277 1.418-.416l1.4-.237c.46-.028.903-.056 1.323-.08.077-.005.153-.007.23-.007.335 0 .66.035.954.04.365.017.695.02.995.08.011.003.024.004.035.006l-.795 1.717a.42.42 0 0 0 .383.603c.06 0 .12-.012.177-.038l7.301-3.364a.427.427 0 0 0 .004-.772z"/>
        <path d="M19.109 17.956a.128.128 0 0 1-.127.129H2.02a.127.127 0 0 1-.127-.129V5.046c0-.07.056-.128.127-.128h5.396l.006-.005c.334-.291.691-.52 1.038-.743.123-.08.248-.161.37-.243l.022-.014c.341-.214.692-.39 1.03-.562.16-.08.318-.16.474-.243.023-.011.045-.023.069-.033L10.612 3H2.018C.904 3 0 3.918 0 5.045v12.91C0 19.083.905 20 2.018 20h16.964C20.095 20 21 19.082 21 17.955V6.187l-1.892.881.001 10.888z"/>

</svg>
