<svg width="18" height="15" viewBox="0 0 18 15" fill="none" xmlns="http://www.w3.org/2000/svg">
<path opacity="0.5" fill-rule="evenodd" clip-rule="evenodd" d="M0.299502 1.67435V9.60974C0.299502 9.75675 0.412029 9.87592 0.550895 9.87592H9.04811C9.18698 9.87592 9.2995 9.75675 9.2995 9.60977V1.67435C9.2995 1.2334 8.96187 0.875916 8.54535 0.875916H1.05368C0.637139 0.875916 0.299502 1.2334 0.299502 1.67435ZM4.62672 14.5838C5.73125 14.5838 6.62672 13.6883 6.62672 12.5838C6.62672 11.4792 5.73125 10.5838 4.62672 10.5838C3.52219 10.5838 2.62672 11.4792 2.62672 12.5838C2.62672 13.6883 3.52219 14.5838 4.62672 14.5838ZM5.62672 12.5837C5.62672 12.0315 5.17901 11.5838 4.62674 11.5838C4.07446 11.5838 3.62672 12.0315 3.62672 12.5837C3.62672 13.136 4.07444 13.5838 4.62672 13.5838C5.17899 13.5838 5.62672 13.136 5.62672 12.5837ZM0.267688 11H2.9391C2.54703 11.2509 2.40264 11.6023 2.32454 12H0.267688C0.119851 12 0 11.911 0 11.8013V11.1986C0 11.0889 0.119851 11 0.267688 11ZM15.3474 12.5838C15.3474 13.6883 14.4519 14.5838 13.3474 14.5838C12.2428 14.5838 11.3474 13.6883 11.3474 12.5838C11.3474 11.4792 12.2428 10.5838 13.3474 10.5838C14.4519 10.5837 15.3474 11.4792 15.3474 12.5838ZM13.3473 11.5838C13.8996 11.5838 14.3474 12.0315 14.3474 12.5837C14.3474 13.136 13.8996 13.5838 13.3473 13.5838C12.7951 13.5838 12.3474 13.136 12.3474 12.5837C12.3474 12.0315 12.795 11.5838 13.3473 11.5838ZM18 10.9812V11.7474C18 11.8869 17.879 12 17.7298 12H15.5426C15.3861 10.997 14.4627 10.2236 13.3474 10.2236C12.2318 10.2236 11.3083 10.997 11.1519 12H6.91535C6.83649 11.4944 6.48574 11.0477 6.09005 10.7287H10.1761V3.50507C10.1761 3.22612 10.418 2.99998 10.7164 2.99998H13.2669C13.9851 2.99998 14.6563 3.33344 15.0581 3.8898L16.7023 6.16631C16.9435 6.50023 17.0724 6.89393 17.0724 7.29685V10.7287H17.7298C17.879 10.7287 18 10.8418 18 10.9812ZM14.3474 4.14281L16 6.46982C16.129 6.69277 15.9979 6.99998 15.7738 6.99998H12.3275C12.1747 6.99998 12.0509 6.84936 12.0509 6.66348V4.33647C12.0509 4.15063 12.1748 3.99998 12.3275 3.99998H14.1211C14.2111 3.99998 14.2955 4.05326 14.3474 4.14281Z" fill="#043E44"/>
</svg>
